<?xml version="1.0" encoding="UTF-8" standalone="no"?> <svg xmlns="http://www.w3.org/2000/svg" viewBox="0 0 47.24 47.18"><defs><style>.cls-1{fill:none;stroke:#333;stroke-linecap:round;stroke-linejoin:round;stroke-width:2px;}</style></defs><title>Asset 22</title><g id="Layer_2" data-name="Layer 2"><g id="Layer_2-2" data-name="Layer 2"><line class="cls-1" x1="23.74" y1="26.18" x2="23.74" y2="46.18"/><path class="cls-1" d="M46.24,19.64a1,1,0,0,0-1.06-1.06,27.64,27.64,0,0,0-12.27,3.76c0-.48.08-1,.08-1.44,0-9.28-6.25-17.11-8.43-19.57a1,1,0,0,0-1.48,0c-2.19,2.46-8.43,10.29-8.43,19.57,0,.57,0,1.14.09,1.7a27.4,27.4,0,0,0-12.67-4A1,1,0,0,0,1,19.64C1.2,22.45,2.18,30,7.19,35c6.25,6.26,16.43,6.23,16.43,6.23v-.15h0v.15h.15l.05,0,.05,0c1.61-.05,10.51-.55,16.18-6.23C45.06,30,46,22.45,46.24,19.64Z"/><path class="cls-1" d="M31.79,31.28l-7.17,4.81a1,1,0,0,1-1.12,0l-7.17-4.81"/></g></g></svg>